<svg width="294" height="110" viewBox="0 0 294 110" fill="none" xmlns="http://www.w3.org/2000/svg">
<path d="M16.2473 53.2199V42.9046C16.2473 42.083 15.6885 41.3527 14.8719 41.3527H12.121C11.3473 41.3527 10.6596 42.083 10.6596 42.9046V93.1577C10.6596 93.9336 11.3473 94.6183 12.121 94.6183H14.8719C15.6456 94.6183 16.2473 93.9793 16.2473 93.1577V82.7967H21.835V94.6183C21.835 97.9046 19.2991 100.552 16.2473 100.552H10.6596C7.60784 100.552 5.15784 97.9046 5.15784 94.6183V41.3527C5.15784 38.112 7.60784 35.5104 10.6596 35.5104H16.2473C19.2991 35.5104 21.835 38.112 21.835 41.3527V53.2199H16.2473Z" fill="white"/>
<path d="M44.143 35.5104V100.506H38.5553V70.9751H33.0965V100.506H27.5088V35.5104H33.0965V65.0415H38.5983V35.5104H44.143Z" fill="white"/>
<path d="M53.4272 100.506H47.8395L53.5991 35.5104H62.7114L68.4711 100.506H62.8833L62.3676 94.5726H53.943L53.4272 100.506ZM54.4588 88.6847H61.8518L58.1982 41.3071L54.4588 88.6847Z" fill="white"/>
<path d="M88.8017 35.5104V82.7967C88.8017 86.0373 86.3087 88.6846 83.214 88.6846H77.6693C74.5745 88.6846 72.0815 86.0373 72.0815 82.7967V35.5104H77.6693V81.2905C77.6693 82.112 78.271 82.7967 79.0447 82.7967H81.8815C82.6122 82.7967 83.257 82.1577 83.257 81.2905V35.5104H88.8017ZM72.0815 94.6639H88.8017V100.552H72.0815V94.6639Z" fill="white"/>
<path d="M111.11 41.3527V94.5726C111.11 97.8589 108.66 100.506 105.522 100.506H94.4325V35.5104H105.565C108.703 35.5104 111.11 38.112 111.11 41.3527ZM104.19 94.5726C104.963 94.5726 105.565 93.9336 105.565 93.112V42.9046C105.565 42.083 105.006 41.3527 104.19 41.3527H100.063V94.5726H104.19Z" fill="white"/>
<path d="M125.115 73.3727H122.45V99.9827H116.862V34.9412H127.994C131.089 34.9412 133.582 37.5428 133.582 40.7835V67.4391C133.582 69.9038 132.207 71.9578 130.186 72.825L133.969 99.937H128.381L125.115 73.3727ZM122.493 67.4391H126.748C127.522 67.3934 128.037 66.7088 128.037 65.9785V42.3354C128.037 41.5138 127.436 40.7835 126.662 40.7835H122.493V67.4391Z" fill="white"/>
<path d="M139.091 35.5104H155.768V41.3983H139.091V35.5104ZM155.768 53.2199V94.6183C155.768 97.8589 153.275 100.506 150.224 100.506H144.636C141.584 100.506 139.091 97.8589 139.091 94.6183V53.2199C139.091 49.9793 141.584 47.332 144.636 47.332H150.224C153.275 47.332 155.768 49.9793 155.768 53.2199ZM148.805 94.6639C149.579 94.6639 150.224 94.0249 150.224 93.1577V54.7261C150.224 53.9046 149.622 53.2199 148.805 53.2199H146.054C145.281 53.2199 144.636 53.8589 144.636 54.7261V93.1577C144.636 93.9793 145.238 94.6639 146.054 94.6639H148.805Z" fill="white"/>
<path d="M172.532 65.0415H172.489L166.944 50.2531V65.0415H161.356V35.5104H166.944L172.489 50.2988V35.5104H178.076V65.0415H172.532ZM178.076 100.506H172.489V100.461L166.944 85.7635V100.552H161.356V71.0207H166.944L172.489 85.8091V71.0207H178.076V100.506Z" fill="white"/>
<path d="M189.338 41.3527V65.0415H197.633V70.9751H189.338V94.5726H200.427V100.506H183.707V35.5104H200.427V41.3527H189.338Z" fill="white"/>
<path d="M214.096 73.9419H211.431V100.552H205.843V35.5104H216.975C220.07 35.5104 222.563 38.112 222.563 41.3527V68.0083C222.563 70.473 221.188 72.527 219.168 73.3942L222.95 100.506H217.362L214.096 73.9419ZM211.431 68.0083H215.686C216.46 67.9627 216.975 67.278 216.975 66.5477V42.9046C216.975 42.083 216.374 41.3527 215.6 41.3527H211.431V68.0083Z" fill="white"/>
<path d="M239.498 41.3983V82.7967H245.043V88.6846H228.366V82.7967H233.91V41.3983H228.366V35.5104H245.043V41.3983H239.498ZM228.366 94.6639H245.043V100.552H228.366V94.6639Z" fill="white"/>
<path d="M256.304 41.3527V65.0415H264.6V70.9751H256.304V94.5726H267.394V100.506H250.674V35.5104H267.394V41.3527H256.304Z" fill="white"/>
<path d="M289.702 41.3527V53.2656H284.114V42.9046C284.114 42.083 283.555 41.3527 282.739 41.3527H279.988C279.214 41.3527 278.612 42.083 278.612 42.9046V62.9419C278.612 63.4896 278.827 64.0373 279.343 64.2199L286.091 66.8672C288.197 67.7801 289.702 69.9253 289.702 72.4357V94.5726C289.702 97.8133 287.252 100.506 284.114 100.506H278.612C275.432 100.506 273.025 97.8133 273.025 94.5726V82.751H278.612V93.112C278.612 93.888 279.171 94.5726 279.988 94.5726H282.739C283.512 94.5726 284.114 93.9336 284.114 93.112V73.029C284.114 72.4357 283.77 71.9336 283.254 71.7054L276.248 68.8755C274.4 67.9627 273.025 65.9544 273.025 63.5809V41.3527C273.025 38.112 275.475 35.5104 278.612 35.5104H284.114C287.252 35.5104 289.702 38.112 289.702 41.3527Z" fill="white"/>
<path d="M125.294 21.0415V24.1452H116.568V8.71783H119.491V21.0415H125.294Z" fill="white"/>
<path d="M145.883 11.7759V14.8797H150.267V17.9834H145.883V21.0871H151.685V24.1909H143.003V8.71783H151.685V11.8216H145.883V11.7759Z" fill="white"/>
<path d="M175.196 14.8797C176.787 14.8797 178.119 16.2946 178.119 17.9834V21.0871C178.119 22.7759 176.83 24.1909 175.196 24.1909H172.274C170.683 24.1909 169.351 22.8216 169.351 21.0871V19.5353H172.274V21.0871H175.196V18.029H172.274C170.683 18.029 169.351 16.6597 169.351 14.9253V11.8216C169.351 10.1328 170.64 8.71783 172.274 8.71783H175.196C176.787 8.71783 178.119 10.1328 178.119 11.8216V13.3734H175.196V11.8216H172.274V14.9253H175.196V14.8797Z" fill="white"/>
</svg>
