<svg width="231" height="83" viewBox="0 0 231 83" fill="none" xmlns="http://www.w3.org/2000/svg">
<path d="M12.7659 40.1568V32.3734C12.7659 31.7535 12.3269 31.2025 11.6852 31.2025H9.52379C8.91589 31.2025 8.37554 31.7535 8.37554 32.3734V70.2917C8.37554 70.8772 8.91589 71.3938 9.52379 71.3938H11.6852C12.2931 71.3938 12.7659 70.9116 12.7659 70.2917V62.4739H17.1562V71.3938C17.1562 73.8734 15.1637 75.871 12.7659 75.871H8.37554C5.97773 75.871 4.05273 73.8734 4.05273 71.3938V31.2025C4.05273 28.7573 5.97773 26.7942 8.37554 26.7942H12.7659C15.1637 26.7942 17.1562 28.7573 17.1562 31.2025V40.1568H12.7659Z" fill="white"/>
<path d="M34.6837 26.7942V75.8365H30.2934V53.5539H26.0044V75.8365H21.614V26.7942H26.0044V49.0768H30.3272V26.7942H34.6837Z" fill="white"/>
<path d="M41.9785 75.8365H37.5881L42.1136 26.7942H49.2732L53.7987 75.8365H49.4083L49.003 71.3593H42.3837L41.9785 75.8365ZM42.789 66.9166H48.5978L45.7272 31.168L42.789 66.9166Z" fill="white"/>
<path d="M69.7728 26.7942V62.4739C69.7728 64.9191 67.814 66.9166 65.3824 66.9166H61.0258C58.5943 66.9166 56.6355 64.9191 56.6355 62.4739V26.7942H61.0258V61.3373C61.0258 61.9573 61.4987 62.4739 62.1065 62.4739H64.3355C64.9096 62.4739 65.4162 61.9917 65.4162 61.3373V26.7942H69.7728ZM56.6355 71.4282H69.7728V75.871H56.6355V71.4282Z" fill="white"/>
<path d="M87.3005 31.2025V71.3593C87.3005 73.839 85.3755 75.8365 82.9102 75.8365H74.197V26.7942H82.944C85.4093 26.7942 87.3005 28.7573 87.3005 31.2025ZM81.8632 71.3593C82.4711 71.3593 82.944 70.8772 82.944 70.2573V32.3734C82.944 31.7535 82.5049 31.2025 81.8632 31.2025H78.6211V71.3593H81.8632Z" fill="white"/>
<path d="M98.3043 55.363H96.2104V75.4414H91.8201V26.3647H100.567C102.999 26.3647 104.957 28.3278 104.957 30.773V50.8858C104.957 52.7456 103.877 54.2954 102.289 54.9497L105.261 75.407H100.871L98.3043 55.363ZM96.2442 50.8858H99.5876C100.196 50.8514 100.601 50.3348 100.601 49.7838V31.9439C100.601 31.324 100.128 30.773 99.5201 30.773H96.2442V50.8858Z" fill="white"/>
<path d="M109.286 26.7942H122.389V31.2369H109.286V26.7942ZM122.389 40.1568V71.3938C122.389 73.839 120.431 75.8365 118.033 75.8365H113.642C111.245 75.8365 109.286 73.839 109.286 71.3938V40.1568C109.286 37.7116 111.245 35.7141 113.642 35.7141H118.033C120.431 35.7141 122.389 37.7116 122.389 40.1568ZM116.918 71.4282C117.526 71.4282 118.033 70.9461 118.033 70.2917V41.2934C118.033 40.6734 117.56 40.1568 116.918 40.1568H114.757C114.149 40.1568 113.642 40.639 113.642 41.2934V70.2917C113.642 70.9116 114.115 71.4282 114.757 71.4282H116.918Z" fill="white"/>
<path d="M135.56 49.0768H135.527L131.17 37.9183V49.0768H126.78V26.7942H131.17L135.527 37.9527V26.7942H139.917V49.0768H135.56ZM139.917 75.8365H135.527V75.8021L131.17 64.7124V75.871H126.78V53.5884H131.17L135.527 64.7469V53.5884H139.917V75.8365Z" fill="white"/>
<path d="M148.765 31.2025V49.0768H155.283V53.5539H148.765V71.3593H157.479V75.8365H144.341V26.7942H157.479V31.2025H148.765Z" fill="white"/>
<path d="M168.218 55.7925H166.124V75.871H161.734V26.7942H170.481C172.912 26.7942 174.871 28.7573 174.871 31.2025V51.3154C174.871 53.1751 173.79 54.7249 172.203 55.3793L175.175 75.8365H170.785L168.218 55.7925ZM166.124 51.3154H169.468C170.076 51.2809 170.481 50.7643 170.481 50.2133V32.3734C170.481 31.7535 170.008 31.2025 169.4 31.2025H166.124V51.3154Z" fill="white"/>
<path d="M188.177 31.2369V62.4739H192.534V66.9166H179.43V62.4739H183.787V31.2369H179.43V26.7942H192.534V31.2369H188.177ZM179.43 71.4282H192.534V75.871H179.43V71.4282Z" fill="white"/>
<path d="M201.382 31.2025V49.0768H207.9V53.5539H201.382V71.3593H210.095V75.8365H196.958V26.7942H210.095V31.2025H201.382Z" fill="white"/>
<path d="M227.623 31.2025V40.1913H223.232V32.3734C223.232 31.7535 222.793 31.2025 222.152 31.2025H219.99C219.382 31.2025 218.91 31.7535 218.91 32.3734V47.4925C218.91 47.9058 219.079 48.3191 219.484 48.4568L224.786 50.4544C226.441 51.1432 227.623 52.7618 227.623 54.656V71.3593C227.623 73.8046 225.698 75.8365 223.232 75.8365H218.91C216.411 75.8365 214.519 73.8046 214.519 71.3593V62.4394H218.91V70.2573C218.91 70.8427 219.349 71.3593 219.99 71.3593H222.152C222.76 71.3593 223.232 70.8772 223.232 70.2573V55.1037C223.232 54.656 222.962 54.2772 222.557 54.105L217.052 51.9697C215.6 51.2809 214.519 49.7656 214.519 47.9747V31.2025C214.519 28.7573 216.444 26.7942 218.91 26.7942H223.232C225.698 26.7942 227.623 28.7573 227.623 31.2025Z" fill="white"/>
<path d="M98.4451 15.8768V18.2187H91.5894V6.578H93.8858V15.8768H98.4451Z" fill="white"/>
<path d="M114.622 8.88547V11.2274H118.067V13.5693H114.622V15.9112H119.181V18.2531H112.359V6.578H119.181V8.91991H114.622V8.88547Z" fill="white"/>
<path d="M137.655 11.2274C138.904 11.2274 139.951 12.295 139.951 13.5693V15.9112C139.951 17.1855 138.938 18.2531 137.655 18.2531H135.358C134.108 18.2531 133.062 17.2199 133.062 15.9112V14.7402H135.358V15.9112H137.655V13.6037H135.358C134.108 13.6037 133.062 12.5705 133.062 11.2618V8.91991C133.062 7.64564 134.075 6.578 135.358 6.578H137.655C138.904 6.578 139.951 7.64564 139.951 8.91991V10.0909H137.655V8.91991H135.358V11.2618H137.655V11.2274Z" fill="white"/>
</svg>
