<svg width="25" height="24" viewBox="0 0 25 24" fill="none" xmlns="http://www.w3.org/2000/svg">
<path d="M12.667 12C13.217 12 13.6878 11.8042 14.0795 11.4125C14.4712 11.0208 14.667 10.55 14.667 10C14.667 9.45 14.4712 8.97917 14.0795 8.5875C13.6878 8.19583 13.217 8 12.667 8C12.117 8 11.6462 8.19583 11.2545 8.5875C10.8628 8.97917 10.667 9.45 10.667 10C10.667 10.55 10.8628 11.0208 11.2545 11.4125C11.6462 11.8042 12.117 12 12.667 12ZM12.667 19.35C14.7003 17.4833 16.2087 15.7875 17.192 14.2625C18.1753 12.7375 18.667 11.3833 18.667 10.2C18.667 8.38333 18.0878 6.89583 16.9295 5.7375C15.7712 4.57917 14.3503 4 12.667 4C10.9837 4 9.56283 4.57917 8.40449 5.7375C7.24616 6.89583 6.66699 8.38333 6.66699 10.2C6.66699 11.3833 7.15866 12.7375 8.14199 14.2625C9.12533 15.7875 10.6337 17.4833 12.667 19.35ZM12.667 22C9.98366 19.7167 7.97949 17.5958 6.65449 15.6375C5.32949 13.6792 4.66699 11.8667 4.66699 10.2C4.66699 7.7 5.47116 5.70833 7.07949 4.225C8.68783 2.74167 10.5503 2 12.667 2C14.7837 2 16.6462 2.74167 18.2545 4.225C19.8628 5.70833 20.667 7.7 20.667 10.2C20.667 11.8667 20.0045 13.6792 18.6795 15.6375C17.3545 17.5958 15.3503 19.7167 12.667 22Z" fill="#75FB4D"/>
</svg>
